<mxfile host="app.diagrams.net" modified="2021-12-09T07:50:21.958Z" agent="5.0 (Macintosh; Intel Mac OS X 10_15_7) AppleWebKit/537.36 (KHTML, like Gecko) Chrome/96.0.4664.93 Safari/537.36" etag="_TWPMabsxyA7WzWwC363" version="15.9.1" type="github">
  <diagram id="kgpKYQtTHZ0yAKxKKP6v" name="Page-1">
    <mxGraphModel dx="1426" dy="681" grid="1" gridSize="10" guides="1" tooltips="1" connect="1" arrows="1" fold="1" page="1" pageScale="1" pageWidth="850" pageHeight="1100" math="0" shadow="0">
      <root>
        <mxCell id="0" />
        <mxCell id="1" parent="0" />
        <mxCell id="l_OX5yID943sF_q3lSLn-1" value="QA" style="shape=umlLifeline;perimeter=lifelinePerimeter;container=1;collapsible=0;recursiveResize=0;rounded=0;shadow=0;strokeWidth=1;size=40;" vertex="1" parent="1">
          <mxGeometry x="110" y="420" width="90" height="600" as="geometry" />
        </mxCell>
        <mxCell id="l_OX5yID943sF_q3lSLn-5" value="APP（安全SDK）" style="shape=umlLifeline;perimeter=lifelinePerimeter;container=1;collapsible=0;recursiveResize=0;rounded=0;shadow=0;strokeWidth=1;" vertex="1" parent="1">
          <mxGeometry x="290" y="420" width="100" height="600" as="geometry" />
        </mxCell>
        <mxCell id="l_OX5yID943sF_q3lSLn-6" value="" style="points=[];perimeter=orthogonalPerimeter;rounded=0;shadow=0;strokeWidth=1;" vertex="1" parent="l_OX5yID943sF_q3lSLn-5">
          <mxGeometry x="45" y="90" width="10" height="120" as="geometry" />
        </mxCell>
        <mxCell id="l_OX5yID943sF_q3lSLn-8" value="测试Case" style="verticalAlign=bottom;endArrow=block;shadow=0;strokeWidth=1;exitX=0.5;exitY=0.17;exitDx=0;exitDy=0;exitPerimeter=0;entryX=0.1;entryY=0.091;entryDx=0;entryDy=0;entryPerimeter=0;" edge="1" parent="1" source="l_OX5yID943sF_q3lSLn-1" target="l_OX5yID943sF_q3lSLn-6">
          <mxGeometry relative="1" as="geometry">
            <mxPoint x="165" y="500" as="sourcePoint" />
            <mxPoint x="330" y="520" as="targetPoint" />
          </mxGeometry>
        </mxCell>
        <mxCell id="l_OX5yID943sF_q3lSLn-9" value="上传数据" style="verticalAlign=bottom;endArrow=block;shadow=0;strokeWidth=1;entryX=0.1;entryY=0.077;entryDx=0;entryDy=0;entryPerimeter=0;" edge="1" parent="1" source="l_OX5yID943sF_q3lSLn-6" target="l_OX5yID943sF_q3lSLn-18">
          <mxGeometry relative="1" as="geometry">
            <mxPoint x="350" y="620" as="sourcePoint" />
            <Array as="points">
              <mxPoint x="420" y="620" />
            </Array>
          </mxGeometry>
        </mxCell>
        <mxCell id="l_OX5yID943sF_q3lSLn-11" value="Server" style="shape=umlLifeline;perimeter=lifelinePerimeter;container=1;collapsible=0;recursiveResize=0;rounded=0;shadow=0;strokeWidth=1;" vertex="1" parent="1">
          <mxGeometry x="440" y="420" width="110" height="600" as="geometry" />
        </mxCell>
        <mxCell id="l_OX5yID943sF_q3lSLn-18" value="" style="points=[];perimeter=orthogonalPerimeter;rounded=0;shadow=0;strokeWidth=1;" vertex="1" parent="l_OX5yID943sF_q3lSLn-11">
          <mxGeometry x="50" y="190" width="10" height="130" as="geometry" />
        </mxCell>
        <mxCell id="l_OX5yID943sF_q3lSLn-19" value="" style="points=[];perimeter=orthogonalPerimeter;rounded=0;shadow=0;strokeWidth=1;" vertex="1" parent="l_OX5yID943sF_q3lSLn-11">
          <mxGeometry x="50" y="370" width="10" height="120" as="geometry" />
        </mxCell>
        <mxCell id="l_OX5yID943sF_q3lSLn-13" value="前端" style="shape=umlLifeline;perimeter=lifelinePerimeter;container=1;collapsible=0;recursiveResize=0;rounded=0;shadow=0;strokeWidth=1;" vertex="1" parent="1">
          <mxGeometry x="600" y="420" width="100" height="600" as="geometry" />
        </mxCell>
        <mxCell id="l_OX5yID943sF_q3lSLn-23" value="" style="points=[];perimeter=orthogonalPerimeter;rounded=0;shadow=0;strokeWidth=1;" vertex="1" parent="l_OX5yID943sF_q3lSLn-13">
          <mxGeometry x="45" y="510" width="10" height="60" as="geometry" />
        </mxCell>
        <mxCell id="l_OX5yID943sF_q3lSLn-20" value="请求数据" style="verticalAlign=bottom;endArrow=block;shadow=0;strokeWidth=1;" edge="1" parent="1" source="l_OX5yID943sF_q3lSLn-13">
          <mxGeometry relative="1" as="geometry">
            <mxPoint x="350" y="630" as="sourcePoint" />
            <mxPoint x="500" y="798" as="targetPoint" />
          </mxGeometry>
        </mxCell>
        <mxCell id="l_OX5yID943sF_q3lSLn-21" value="返回数据" style="verticalAlign=bottom;endArrow=open;dashed=1;endSize=8;exitX=1.3;exitY=0.95;shadow=0;strokeWidth=1;exitDx=0;exitDy=0;exitPerimeter=0;" edge="1" parent="1" source="l_OX5yID943sF_q3lSLn-19">
          <mxGeometry relative="1" as="geometry">
            <mxPoint x="650" y="904" as="targetPoint" />
            <mxPoint x="735" y="949.9999999999998" as="sourcePoint" />
          </mxGeometry>
        </mxCell>
        <mxCell id="l_OX5yID943sF_q3lSLn-25" value="展示报告" style="verticalAlign=bottom;endArrow=block;shadow=0;strokeWidth=1;" edge="1" parent="1" target="l_OX5yID943sF_q3lSLn-1">
          <mxGeometry relative="1" as="geometry">
            <mxPoint x="645" y="960" as="sourcePoint" />
            <mxPoint x="520" y="960" as="targetPoint" />
          </mxGeometry>
        </mxCell>
      </root>
    </mxGraphModel>
  </diagram>
</mxfile>
